<svg id="Layer_1" data-name="Layer 1" xmlns="http://www.w3.org/2000/svg" xmlns:xlink="http://www.w3.org/1999/xlink" viewBox="0 0 333.08 163.38"><defs><style>.cls-1{fill:url(#linear-gradient);}.cls-2{fill:url(#linear-gradient-2);}.cls-3{fill:url(#linear-gradient-3);}.cls-4{fill:url(#linear-gradient-4);}.cls-5{fill:url(#linear-gradient-5);}.cls-6{fill:url(#linear-gradient-6);}.cls-7{fill:url(#linear-gradient-7);}.cls-8{fill:url(#linear-gradient-8);}.cls-9{fill:url(#linear-gradient-9);}.cls-10{fill:url(#linear-gradient-10);}.cls-11{fill:url(#linear-gradient-11);}.cls-12{fill:url(#linear-gradient-12);}.cls-13{font-size:13.54px;fill:#404041;font-family:Archivo-Medium, Archivo;font-weight:500;letter-spacing:0.03em;}.cls-14{letter-spacing:0.02em;}.cls-15{letter-spacing:-0.05em;}.cls-16{letter-spacing:-0.04em;}.cls-17{letter-spacing:0.02em;}</style><linearGradient id="linear-gradient" x1="240.78" y1="340.29" x2="501.39" y2="254.41" gradientUnits="userSpaceOnUse"><stop offset="0" stop-color="#8bc53f"/><stop offset="1" stop-color="#37b34a"/></linearGradient><linearGradient id="linear-gradient-2" x1="230.6" y1="338.36" x2="587.15" y2="220.87" xlink:href="#linear-gradient"/><linearGradient id="linear-gradient-3" x1="-39.88" y1="73.61" x2="316.67" y2="-43.89" xlink:href="#linear-gradient"/><linearGradient id="linear-gradient-4" x1="235.59" y1="353.5" x2="592.14" y2="236.01" xlink:href="#linear-gradient"/><linearGradient id="linear-gradient-5" x1="242.24" y1="373.67" x2="598.79" y2="256.18" xlink:href="#linear-gradient"/><linearGradient id="linear-gradient-6" x1="246.84" y1="387.64" x2="603.39" y2="270.15" xlink:href="#linear-gradient"/><linearGradient id="linear-gradient-7" x1="245.19" y1="382.65" x2="601.74" y2="265.15" xlink:href="#linear-gradient"/><linearGradient id="linear-gradient-8" x1="259.43" y1="425.83" x2="615.98" y2="308.34" xlink:href="#linear-gradient"/><linearGradient id="linear-gradient-9" x1="4.23" y1="207.49" x2="360.78" y2="90" xlink:href="#linear-gradient"/><linearGradient id="linear-gradient-10" x1="-10.05" y1="164.15" x2="346.5" y2="46.65" xlink:href="#linear-gradient"/><linearGradient id="linear-gradient-11" x1="348.19" y1="237.44" x2="380.21" y2="237.44" xlink:href="#linear-gradient"/><linearGradient id="linear-gradient-12" x1="406.02" y1="243.54" x2="422.09" y2="243.54" gradientTransform="matrix(-1, 0, 0, 1, 752.15, 0)" xlink:href="#linear-gradient"/></defs><path class="cls-1" d="M404.94,374.13H298c-8.71,0-15.44-2.32-20-6.91-7.27-7.31-7.22-18.2-7.18-26.15V242.45h10.29v98.67c0,6.49-.06,14.57,4.19,18.84,2.57,2.58,6.85,3.89,12.72,3.89h107Z" transform="translate(-254.4 -215.95)"/><path class="cls-2" d="M318.11,353.79H307.83v-59c0-7.95-.09-18.84,7.18-26.14,4.57-4.59,11.3-6.92,20-6.92h8.77v10.29H335c-5.87,0-10.15,1.31-12.72,3.89-4.25,4.27-4.21,12.35-4.18,18.84v59Z" transform="translate(-254.4 -215.95)"/><rect class="cls-3" y="47.53" width="47.3" height="10.29"/><path class="cls-4" d="M375.4,353.88c-10.95,0-18.16-2.91-22-8.88C350,339.83,350,333.6,350,328.11v-11L390.44,293c-.05-17.18-1-20.89-15.8-20.89-6.26,0-10.39,1-12.28,2.92-2.36,2.42-2.23,7.89-2.07,14.23,0,1.74.08,3.56.08,5.42H350.09c0-1.78,0-3.5-.09-5.17-.2-8.3-.39-16.14,5-21.67,4-4.1,10.25-6,19.64-6,26.08,0,26.08,15.95,26.08,32.85v35.21C400.72,344.9,391.26,353.88,375.4,353.88Zm-15.11-31v5.2c0,4.46,0,8.66,1.69,11.28,1.81,2.78,6.32,4.19,13.42,4.19,10.26,0,15-4.36,15-13.73V304.94Z" transform="translate(-254.4 -215.95)"/><path class="cls-5" d="M432.12,353.65c-10.95,0-18.17-2.9-22.05-8.88-3.36-5.17-3.35-11.39-3.35-16.88v-6.84A22.71,22.71,0,0,1,429,298.44l18.13-.24V261.72h10.28v67.91C457.44,344.67,448,353.65,432.12,353.65Zm15-45.16-18,.24A12.36,12.36,0,0,0,417,321.05v6.84c0,4.46,0,8.66,1.7,11.28,1.81,2.78,6.32,4.19,13.42,4.19,10.26,0,15-4.36,15-13.73Z" transform="translate(-254.4 -215.95)"/><path class="cls-6" d="M489,353.84c-10.93,0-18.13-2.8-22-8.57-3.4-5.08-3.4-11.26-3.4-16.71v-8.11l.09-25.36c0-.49,0-1.06,0-1.7-.15-6.12-.43-17.51,6.94-25.06,4.23-4.34,10.17-6.53,17.64-6.53,26.09,0,26.09,14,26.09,33.3v35.21C514.3,350.79,498.43,353.84,489,353.84Zm-.76-81.76c-4.66,0-8,1.12-10.28,3.43-4.34,4.45-4.13,13-4,17.63,0,.74,0,1.4,0,2v0l-.08,33.45c0,4.37,0,8.49,1.65,11,1.79,2.67,6.32,4,13.46,4,13.88,0,15-6.84,15-13.25V295.1C504,275.6,504,272.08,488.21,272.08Z" transform="translate(-254.4 -215.95)"/><path class="cls-7" d="M545.81,311.9c-11,0-18.2-2.9-22.08-8.87-3.38-5.18-3.37-11.41-3.37-16.91v-.48c0-8.08,0-23.86,0-23.86h10.29s0,15.77,0,23.85v.48c0,4.46,0,8.68,1.7,11.29,1.82,2.79,6.35,4.2,13.47,4.2,10.21,0,15-4.34,15-13.65,0-1.59,0-3.94,0-6.89,0-5,0-11.69,0-19.28H571c0,7.58,0,14.27,0,19.25,0,3,0,5.33,0,6.92C571.05,303,561.62,311.9,545.81,311.9Z" transform="translate(-254.4 -215.95)"/><path class="cls-8" d="M520.37,353.55s0-15.77,0-23.85v-.48c0-5.5,0-11.73,3.37-16.91,3.88-6,11.11-8.87,22.08-8.87,15.81,0,25.24,8.95,25.24,23.94,0,1.59,0,3.95,0,6.92,0,5,0,11.67,0,19.25H560.71c0-7.6,0-14.29,0-19.28,0-3,0-5.31,0-6.89,0-9.32-4.75-13.65-15-13.65-7.12,0-11.65,1.41-13.47,4.19-1.7,2.62-1.7,6.84-1.7,11.3v.48c0,8.08,0,23.84,0,23.85Z" transform="translate(-254.4 -215.95)"/><rect class="cls-9" x="322.76" y="63.78" width="10.29" height="74.12"/><rect class="cls-10" x="322.8" y="47.08" width="10.29" height="11.38"/><path class="cls-11" d="M350.2,257c-3.44-10.25-1.82-15.62.17-18.61,3.06-4.59,7.76-4.65,14.32-10a39.65,39.65,0,0,0,10-12.46,27.36,27.36,0,0,1,5.51,15.77A23.1,23.1,0,0,1,377.32,244c-3.36,5.77-8.75,8.37-15.17,11.48a60.64,60.64,0,0,1-8.77,3.44,17.59,17.59,0,0,1,7.24-13.48A18.07,18.07,0,0,0,350.2,257Z" transform="translate(-254.4 -215.95)"/><path class="cls-12" d="M345.12,253.37c1.73-5.15.92-7.84-.08-9.34-1.54-2.3-3.9-2.33-7.19-5a19.71,19.71,0,0,1-5-6.25,13.65,13.65,0,0,0-2.77,7.91,11.69,11.69,0,0,0,1.45,6.17c1.69,2.89,4.39,4.2,7.61,5.76a30.26,30.26,0,0,0,4.41,1.72,9,9,0,0,0-1.09-3.87,8.8,8.8,0,0,0-2.55-2.89,9.22,9.22,0,0,1,3.3,2.34A9,9,0,0,1,345.12,253.37Z" transform="translate(-254.4 -215.95)"/><text class="cls-13" transform="translate(158.31 157.97)">The <tspan class="cls-14" x="27.94" y="0">R</tspan><tspan x="37.98" y="0">eal </tspan><tspan class="cls-15" x="60.54" y="0">T</tspan><tspan x="68.15" y="0">aste Of </tspan><tspan class="cls-16" x="117.7" y="0">T</tspan><tspan class="cls-17" x="125.45" y="0">r</tspan><tspan x="130.4" y="0">adition</tspan></text></svg>