<?xml version="1.0" encoding="UTF-8"?>
<svg xmlns="http://www.w3.org/2000/svg" id="Layer_1" data-name="Layer 1" version="1.1" viewBox="0 0 217 48">
  <defs>
    <style>
      .cls-1 {
        fill: #231f20;
      }

      .cls-1, .cls-2 {
        stroke-width: 0px;
      }

      .cls-2 {
        fill: #09afe2;
      }
    </style>
  </defs>
  <g>
    <path class="cls-1" d="M9.17,25.2c.23-.22.34-.5.34-.84s-.11-.59-.34-.82c-.23-.22-.51-.33-.86-.33s-.64.11-.86.33c-.23.23-.34.5-.34.82s.11.62.34.84c.23.22.51.34.86.34s.63-.11.86-.34Z"></path>
    <path class="cls-1" d="M5.2,25.54c.35,0,.64-.11.86-.34.23-.22.34-.5.34-.84s-.11-.59-.34-.82c-.23-.22-.51-.33-.86-.33s-.63.11-.86.33c-.23.23-.34.5-.34.82s.11.62.34.84c.23.22.51.34.86.34Z"></path>
    <path class="cls-1" d="M23.16,8.09c.34,0,.63-.11.86-.34.23-.23.35-.5.35-.82s-.11-.59-.35-.82c-.23-.23-.52-.34-.86-.34s-.62.11-.85.34c-.23.23-.35.5-.35.82s.11.59.35.82c.23.23.51.34.85.34Z"></path>
    <path class="cls-1" d="M24.27,18.04v-7.98h-2.28v5.66h-2.75s0,0,0,0h-1.13v-1.55c0-1.38-.34-2.41-1.01-3.09-.67-.69-1.71-1.03-3.13-1.03h-2.78v6.94c0,.47-.11.89-.32,1.25-.21.37-.51.67-.91.92-.39.25-.86.44-1.39.56-.54.13-1.12.19-1.76.19s-1.22-.08-1.72-.23c-.5-.16-.92-.37-1.26-.63-.34-.26-.6-.58-.77-.95-.17-.37-.26-.77-.26-1.22,0-.36.07-.76.21-1.19.15-.44.37-.88.68-1.34l-1.89-1.1c-.39.56-.7,1.15-.95,1.76-.25.62-.37,1.29-.37,2.01,0,.63.12,1.26.35,1.89.24.63.6,1.19,1.1,1.7.49.5,1.12.91,1.9,1.23.77.32,1.7.48,2.78.48,1.19,0,2.22-.16,3.09-.46.86-.31,1.58-.72,2.14-1.24.56-.52.98-1.13,1.24-1.83.27-.7.41-1.45.41-2.25v-4.23h.18c.36,0,.68.02.95.07.28.05.5.14.68.29.18.15.32.36.41.63.09.27.13.64.13,1.09v3.65h3.57s0,0,0,0h4.89Z"></path>
    <path class="cls-1" d="M49.01,8.09c.35,0,.63-.11.86-.34.23-.23.34-.5.34-.82s-.11-.59-.34-.82c-.23-.23-.51-.34-.86-.34s-.64.11-.86.34c-.23.23-.34.5-.34.82s.11.59.34.82c.23.23.51.34.86.34Z"></path>
    <path class="cls-1" d="M45.88,8.09c.35,0,.63-.11.86-.34.23-.23.34-.5.34-.82s-.11-.59-.34-.82c-.23-.23-.51-.34-.86-.34s-.64.11-.86.34-.34.5-.34.82.11.59.34.82.51.34.86.34Z"></path>
    <path class="cls-1" d="M65.37,15.71h-1.18c-.67,0-1.13-.17-1.38-.52-.25-.35-.38-.79-.38-1.32v-2.72h-2.29v3.53c0,.35-.04.61-.14.78-.1.17-.3.26-.61.26h-.5c-.66,0-1.13-.17-1.38-.52-.25-.35-.38-.79-.38-1.32v-1.94h-2.29v2.75c0,.32-.05.57-.14.76-.09.18-.29.28-.6.28h-3.45s0,0,0,0h-.58c-.67,0-1.13-.18-1.38-.52-.25-.35-.38-.79-.38-1.32v-3.81h-2.29v4.62c0,.32-.05.57-.15.76-.1.18-.3.28-.59.28h-1.69s-.08-.02-.14-.02h-.72c-.4,0-.72-.06-.95-.18-.24-.12-.41-.26-.54-.43-.12-.16-.19-.34-.23-.52-.04-.19-.05-.34-.05-.46,0-1.49-.34-2.64-1.03-3.46-.69-.83-1.68-1.24-2.97-1.24-.59,0-1.14.11-1.65.34-.5.23-.95.54-1.31.92-.36.39-.65.86-.86,1.39-.21.54-.31,1.12-.31,1.76,0,.39-.03.7-.1.95-.06.25-.16.44-.27.58-.11.14-.24.23-.39.28-.15.05-.3.07-.44.07h-.78c-.06,0-.11,0-.16.02h-1.1V3.68h-2.29v14.36h3.54s0,0,0,0h.9c.44,0,.84-.13,1.18-.38.35-.26.62-.58.8-.97.32.43.74.78,1.23,1.05.5.27,1.14.41,1.9.41.32,0,.63-.01.94-.04.31-.03.61-.09.89-.19.28-.1.55-.26.82-.48.26-.21.52-.51.76-.89.2.43.51.79.93,1.07.42.29.91.43,1.48.43h.78s0,0,0,0h1.92c.56,0,1.05-.13,1.45-.38.41-.25.72-.57.95-.96.19.34.46.64.81.92.36.28.83.42,1.42.42h.76s0,0,0,0h3.3c.6,0,1.12-.11,1.56-.33.43-.22.76-.54.99-.95.19.34.45.63.81.89.35.26.82.39,1.42.39h.64c.56,0,1.05-.11,1.48-.33.43-.22.76-.55.98-.99.19.34.45.64.8.91.35.28.81.41,1.36.41h3.51v-7.98h-2.27v5.65ZM38.35,15.24c-.3.38-.77.57-1.41.57s-1.11-.19-1.42-.57c-.3-.38-.45-.85-.45-1.41,0-.35.05-.66.15-.94.1-.28.23-.52.4-.72.17-.2.36-.35.59-.46.23-.11.47-.16.72-.16.24,0,.48.05.7.16.23.11.42.26.59.46.17.2.3.44.41.72.11.28.16.59.16.94,0,.56-.15,1.03-.45,1.41Z"></path>
    <path class="cls-1" d="M69.55,21.91c.16.03.35.05.57.07.22.02.45.03.7.03.61,0,1.15-.11,1.62-.33.46-.22.86-.52,1.18-.91.32-.39.56-.84.72-1.37.16-.52.24-1.08.24-1.68v-.55c.2.23.46.43.78.61.32.17.67.26,1.06.26h5.13V3.68h-2.26v12.03h-2.93c-.7,0-1.17-.17-1.42-.52-.24-.35-.37-.79-.37-1.32v-3.81h-2.29v7.48c0,.72-.1,1.27-.3,1.65-.2.37-.59.56-1.18.56-.15,0-.31-.01-.49-.03-.18-.02-.35-.04-.51-.07l-.56-.12-.24,2.28c.08.03.16.05.25.06.09.01.18.02.29.04Z"></path>
    <rect class="cls-1" x="84.84" y="3.68" width="2.26" height="14.36"></rect>
    <path class="cls-1" d="M96.25,8.09c.35,0,.63-.11.86-.34.23-.23.34-.5.34-.82s-.11-.59-.34-.82c-.23-.23-.51-.34-.86-.34s-.64.11-.86.34-.34.5-.34.82.11.59.34.82.51.34.86.34Z"></path>
    <path class="cls-1" d="M99.38,8.09c.35,0,.63-.11.86-.34s.34-.5.34-.82-.11-.59-.34-.82-.51-.34-.86-.34-.64.11-.86.34c-.23.23-.34.5-.34.82s.11.59.34.82c.23.23.51.34.86.34Z"></path>
    <path class="cls-1" d="M111.73,18.04v-2.32h-1.76c-.42,0-.82-.05-1.21-.16-.39-.11-.73-.26-1.02-.46s-.53-.45-.71-.75c-.18-.3-.27-.64-.27-1.03,0-.56.19-1.01.58-1.35.39-.33.94-.5,1.66-.5.26,0,.54.01.8.04.26.03.57.06.9.12l.28-2.29c-.45-.06-.86-.11-1.22-.15-.36-.04-.7-.05-1.01-.05-.76,0-1.42.11-1.96.32-.55.21-1,.5-1.36.86-.35.36-.61.77-.77,1.22-.16.46-.24.92-.24,1.41,0,.6.12,1.14.36,1.61.24.46.54.85.88,1.16h-2.65s-.01,0-.02,0h-1.29v-2.39c0-.59-.09-1.12-.27-1.61-.18-.49-.44-.91-.78-1.26-.34-.36-.75-.63-1.23-.82-.47-.19-.99-.29-1.57-.29-.63,0-1.2.12-1.72.37-.52.25-.97.58-1.34,1.01-.37.43-.67.92-.88,1.49-.22.57-.32,1.17-.32,1.79,0,.5.08.98.24,1.46.16.48.42.91.78,1.29.36.38.83.69,1.39.92.57.23,1.26.35,2.08.35h5.05s.01,0,.02,0h8.56ZM99.44,15.71h-1.41c-.28,0-.55-.04-.81-.11-.26-.07-.49-.19-.69-.36-.2-.16-.36-.38-.48-.64-.12-.26-.18-.58-.18-.95,0-.32.05-.61.16-.86.11-.25.25-.47.42-.65.17-.18.37-.32.59-.42.22-.1.45-.15.69-.15.56,0,.99.21,1.28.61.29.41.43.99.43,1.76v1.78Z"></path>
    <path class="cls-1" d="M141.22,21.39c.23-.22.35-.5.35-.84s-.11-.59-.35-.82c-.23-.22-.51-.33-.85-.33s-.63.11-.86.33c-.23.23-.35.5-.35.82s.11.62.35.84c.23.22.52.34.86.34s.62-.11.85-.34Z"></path>
    <path class="cls-1" d="M155.72,12.12c-.16-.56-.41-1.04-.73-1.44-.33-.4-.75-.71-1.24-.94-.5-.23-1.09-.34-1.76-.34-.6,0-1.15.11-1.65.33-.5.22-.94.53-1.31.92-.37.39-.66.86-.87,1.41-.21.55-.31,1.14-.31,1.78,0,1.25-.41,1.88-1.24,1.88h-.63s-.03,0-.05,0h-.46c-.27,0-.49-.09-.66-.28-.17-.18-.31-.42-.42-.69-.11-.27-.19-.57-.25-.88-.06-.31-.1-.61-.13-.87-.04-.42-.13-.84-.26-1.28-.14-.43-.34-.83-.61-1.19-.28-.36-.63-.65-1.06-.88-.43-.23-.97-.34-1.62-.34-.28,0-.58.03-.89.08-.31.05-.62.12-.91.19-.29.08-.57.15-.83.23-.26.08-.47.15-.63.2l.56,2.19c.42-.21.83-.35,1.24-.43.42-.09.76-.13,1.03-.13.46,0,.84.14,1.13.41.29.27.46.75.54,1.43.05.62.13,1.09.23,1.42.1.34.21.61.33.82h-5.7s-.07-.02-.11-.02h-.72c-.4,0-.72-.06-.95-.18-.24-.12-.41-.26-.54-.43-.12-.16-.19-.34-.23-.52-.03-.19-.05-.34-.05-.46,0-1.49-.34-2.64-1.03-3.46-.69-.83-1.69-1.24-2.98-1.24-.59,0-1.14.11-1.64.34-.51.23-.95.54-1.31.92-.37.39-.66.86-.86,1.39-.21.54-.31,1.12-.31,1.76,0,.39-.04.7-.1.95-.06.25-.16.44-.27.58-.11.14-.24.23-.39.28-.15.05-.3.07-.44.07h-.78c-.05,0-.1,0-.15.02h-1.71v-2.38c0-.59-.09-1.13-.26-1.62-.17-.49-.43-.91-.76-1.26-.34-.35-.74-.63-1.21-.82-.48-.19-1.02-.29-1.62-.29s-1.2.12-1.71.37c-.52.25-.96.58-1.34,1.01-.37.43-.66.93-.87,1.5-.21.57-.31,1.16-.31,1.79,0,.49.08.98.24,1.46.16.49.42.91.77,1.3.36.38.82.69,1.39.92.57.23,1.26.35,2.09.35h1.35c-.02.45-.1.82-.25,1.09-.15.28-.36.49-.62.64-.26.16-.56.26-.89.31-.34.05-.69.08-1.06.08-.25,0-.56-.01-.9-.04-.35-.03-.72-.06-1.1-.12l-.16,2.24c.4.07.77.11,1.1.13.34.02.65.03.96.03.74,0,1.41-.09,2.03-.25.62-.16,1.15-.42,1.6-.77.46-.35.82-.8,1.09-1.36.26-.55.42-1.22.46-1.99h1.85s0,0,.01,0h.9c.44,0,.84-.13,1.18-.38.35-.26.62-.58.81-.97.32.43.73.78,1.23,1.05.5.27,1.13.41,1.89.41.32,0,.64-.01.95-.04.3-.03.6-.09.88-.19.28-.1.55-.26.82-.48.26-.21.52-.51.76-.89.2.43.51.79.93,1.07.42.29.91.43,1.48.43h.67s0,0,0,0h5.25c.29,0,.58-.05.87-.16s.55-.35.79-.72c.26.24.61.45,1.03.62.42.18.84.26,1.28.26h.38s.01,0,.02,0h.8c.4,0,.77-.11,1.13-.33.36-.22.63-.57.83-1.03.22.28.45.51.71.69.26.18.53.32.82.42.29.1.58.17.87.21.29.03.59.05.88.05.72,0,1.34-.11,1.84-.34.5-.23.91-.53,1.23-.91.32-.38.55-.82.69-1.31.14-.49.21-1,.21-1.52,0-.66-.08-1.28-.24-1.84ZM119.67,15.71h-1.41c-.28,0-.55-.04-.81-.11-.26-.08-.49-.19-.69-.36-.2-.17-.36-.38-.48-.64-.12-.26-.18-.58-.18-.95,0-.32.05-.61.16-.86.11-.25.25-.47.42-.65.17-.18.37-.32.59-.42.22-.1.45-.15.69-.15.54,0,.95.21,1.25.61.3.41.45.99.45,1.76v1.78ZM131.31,15.24c-.3.38-.77.57-1.42.57s-1.11-.19-1.42-.57c-.3-.38-.45-.85-.45-1.41,0-.35.05-.66.15-.94.1-.28.23-.52.4-.72.17-.2.36-.35.59-.46.22-.11.46-.16.72-.16s.48.05.7.16c.23.11.42.26.59.46.17.2.3.44.41.72.11.28.16.59.16.94,0,.56-.15,1.03-.45,1.41ZM153.35,15.25c-.3.39-.77.58-1.39.58-.67,0-1.15-.2-1.43-.59-.29-.39-.43-.86-.43-1.39,0-.35.05-.66.15-.95.1-.28.23-.52.4-.72.17-.2.36-.36.59-.46.23-.1.47-.16.72-.16.24,0,.47.05.69.16.22.11.41.26.58.46.17.2.31.44.41.72.11.28.16.59.16.95,0,.55-.15,1.02-.45,1.4Z"></path>
    <path class="cls-1" d="M6.11,28.62h-1.92L.33,38.42h2.03l.83-2.16h4.06l.83,2.16h2.03l-3.86-9.79h-.12ZM3.83,34.57l1.38-3.6,1.38,3.6h-2.76Z"></path>
    <polygon class="cls-1" points="13.19 28.63 11.27 28.63 11.27 38.42 13.19 38.42 13.19 38.42 17.5 38.42 17.5 36.67 13.19 36.67 13.19 28.63"></polygon>
    <path class="cls-1" d="M27.53,34.55c.54-.26.97-.64,1.28-1.12.31-.48.47-1.03.47-1.64s-.15-1.17-.45-1.65c-.3-.48-.71-.85-1.25-1.13-.53-.28-1.14-.41-1.83-.39h-1.94s-1.7.01-1.7.01v9.79h1.92v-3.47h1.47l2,3.47h2.17l-2.27-3.82s.09-.03.13-.05ZM24.03,30.38h1.64c.48,0,.86.13,1.17.39.3.26.45.61.45,1.02,0,.27-.06.51-.2.73-.14.22-.32.38-.55.5-.23.12-.49.18-.78.18h-1.74v-2.82Z"></path>
    <path class="cls-1" d="M38.18,29.13c-.75-.44-1.62-.65-2.61-.65s-1.84.22-2.59.64c-.75.43-1.34,1.02-1.77,1.78-.43.76-.64,1.64-.64,2.64s.21,1.85.64,2.61c.43.76,1.02,1.36,1.78,1.79.76.43,1.63.65,2.62.65s1.83-.22,2.58-.65c.75-.43,1.34-1.03,1.76-1.79.42-.76.64-1.63.64-2.61s-.22-1.86-.65-2.62c-.43-.76-1.02-1.36-1.77-1.79ZM38.25,35.24c-.26.49-.61.89-1.06,1.17-.45.29-.97.43-1.57.43s-1.14-.14-1.61-.43c-.46-.28-.83-.68-1.09-1.17-.26-.49-.39-1.06-.39-1.71s.13-1.23.39-1.72c.26-.5.63-.89,1.09-1.17.46-.29.99-.43,1.57-.43s1.14.14,1.59.43c.46.28.82.67,1.08,1.17.26.49.39,1.06.39,1.72s-.13,1.22-.38,1.71Z"></path>
    <path class="cls-1" d="M46.35,32.81l-1.29-.32c-.36-.09-.65-.23-.86-.4-.21-.18-.31-.42-.31-.73,0-.39.13-.7.39-.91.27-.22.63-.32,1.1-.32s.83.11,1.13.34c.3.23.5.5.62.81l1.86-.57c-.17-.45-.41-.85-.72-1.19-.32-.34-.71-.59-1.18-.77-.47-.18-1.02-.28-1.64-.28-1.12,0-1.98.26-2.59.78-.61.51-.92,1.24-.92,2.16,0,.48.1.91.31,1.27.21.36.49.67.85.92.36.24.78.43,1.26.55l1.28.34c.43.11.77.27,1.01.48.25.21.37.47.37.78,0,.36-.16.64-.47.87-.31.22-.71.33-1.21.32-.46-.01-.85-.13-1.16-.36-.31-.23-.52-.5-.64-.82l-1.87.56c.06.3.21.58.43.85.22.27.49.51.83.74.34.22.72.39,1.15.51.43.12.89.18,1.38.18.76,0,1.4-.12,1.93-.36.54-.24.94-.58,1.22-1.02.28-.43.42-.94.42-1.52,0-.65-.23-1.24-.7-1.78-.46-.53-1.11-.9-1.96-1.1Z"></path>
    <polygon class="cls-1" points="57.55 30.37 57.55 28.63 49.78 28.63 49.78 30.37 52.71 30.37 52.71 38.42 54.63 38.42 54.63 30.37 57.55 30.37"></polygon>
    <path class="cls-1" d="M62.75,28.62h-1.92l-3.86,9.79h2.03l.83-2.16h4.06l.82,2.16h2.03l-3.86-9.79h-.12ZM60.47,34.57l1.38-3.61,1.38,3.61h-2.76Z"></path>
    <polygon class="cls-1" points="75.87 28.64 75.7 28.63 72.85 32.86 69.99 28.63 69.83 28.64 69.83 28.63 67.91 28.63 67.91 38.42 69.83 38.42 69.83 31.67 72.85 36.07 75.87 31.63 75.87 38.42 77.77 38.42 77.77 28.63 75.87 28.63 75.87 28.64"></polygon>
    <path class="cls-1" d="M84.73,28.62h-1.92l-3.86,9.79h2.03l.83-2.16h4.06l.82,2.16h2.03l-3.86-9.79h-.12ZM82.45,34.57l1.38-3.61,1.38,3.61h-2.76Z"></path>
    <polygon class="cls-1" points="96.67 35.23 91.89 28.63 89.89 28.63 89.89 38.42 91.8 38.43 91.8 31.7 96.67 38.42 98.58 38.42 98.58 28.63 96.67 28.63 96.67 35.23"></polygon>
    <rect class="cls-1" x="100.7" y="28.63" width="1.92" height="9.79"></rect>
    <path class="cls-1" d="M112.94,34.67h2.28c-.02.4-.13.75-.32,1.06-.23.35-.54.63-.92.83-.39.19-.83.29-1.32.29-.63,0-1.19-.14-1.68-.43-.49-.29-.86-.68-1.13-1.18-.26-.5-.4-1.08-.4-1.72s.14-1.23.41-1.72c.27-.49.64-.88,1.12-1.17.48-.28,1.02-.43,1.64-.43.31,0,.61.06.92.17.31.11.59.26.85.46.26.19.46.42.62.67l1.57-.98c-.26-.4-.58-.76-.97-1.07-.39-.31-.83-.56-1.34-.74-.5-.18-1.05-.26-1.65-.26-1,0-1.89.22-2.65.65-.77.44-1.37,1.03-1.81,1.79-.44.76-.66,1.63-.66,2.62s.22,1.86.66,2.62c.44.76,1.04,1.36,1.81,1.79.77.44,1.65.65,2.65.65.86,0,1.63-.17,2.3-.51.67-.34,1.19-.83,1.57-1.49.36-.62.54-1.36.56-2.22h0v-1.19h-4.11v1.5Z"></path>
    <path class="cls-1" d="M123.88,34.55c.54-.26.97-.64,1.28-1.12.31-.48.47-1.03.47-1.64s-.15-1.17-.45-1.65c-.3-.48-.71-.85-1.24-1.13-.54-.28-1.15-.41-1.83-.39h-1.95s-1.69.01-1.69.01v9.79h1.92v-3.47h1.46l2,3.47h2.17l-2.27-3.82s.09-.03.13-.05ZM120.39,30.38h1.63c.48,0,.86.13,1.17.39.3.26.45.61.45,1.02,0,.27-.06.51-.2.73-.14.22-.32.38-.55.5-.23.12-.49.18-.78.18h-1.73v-2.82Z"></path>
    <path class="cls-1" d="M134.54,29.13c-.75-.44-1.62-.65-2.61-.65s-1.84.22-2.59.64c-.75.43-1.34,1.02-1.77,1.78-.43.76-.64,1.64-.64,2.64s.21,1.85.64,2.61c.43.76,1.02,1.36,1.78,1.79.76.43,1.63.65,2.62.65s1.83-.22,2.58-.65c.75-.43,1.34-1.03,1.76-1.79.42-.76.63-1.63.63-2.61s-.21-1.86-.64-2.62c-.43-.76-1.02-1.36-1.77-1.79ZM134.61,35.24c-.26.49-.61.89-1.06,1.17-.45.29-.98.43-1.57.43s-1.15-.14-1.61-.43c-.46-.28-.83-.68-1.09-1.17-.26-.49-.39-1.06-.39-1.71s.13-1.23.39-1.72c.26-.5.63-.89,1.09-1.17.46-.29.98-.43,1.57-.43s1.14.14,1.59.43c.46.28.82.67,1.08,1.17.26.49.39,1.06.39,1.72s-.13,1.22-.38,1.71Z"></path>
    <path class="cls-1" d="M144.45,34.77c0,.42-.09.79-.26,1.1-.17.31-.42.55-.73.72-.31.17-.68.25-1.1.25s-.78-.08-1.1-.25c-.31-.17-.56-.41-.73-.72-.17-.31-.25-.68-.25-1.1v-6.14h-1.92v6.14c0,.78.16,1.46.48,2.04.32.57.78,1.02,1.38,1.34.6.32,1.3.48,2.11.48s1.53-.16,2.14-.48c.6-.32,1.06-.76,1.4-1.34.33-.58.49-1.25.49-2.04h0v-6.14h-1.92v6.14Z"></path>
    <path class="cls-1" d="M153.83,29.03c-.54-.29-1.15-.43-1.83-.42l-1.95.02h-1.69v9.79h1.92v-3.25h1.87c.66,0,1.25-.14,1.75-.43.5-.28.9-.68,1.19-1.17.29-.49.43-1.06.43-1.69s-.15-1.21-.45-1.7c-.3-.49-.71-.88-1.24-1.16ZM153.16,32.99c-.28.28-.63.42-1.05.42h-1.83v-3.04h1.68c.32,0,.59.05.84.18.24.13.43.31.57.54.14.23.21.5.21.79,0,.45-.14.82-.41,1.1Z"></path>
  </g>
  <g>
    <path class="cls-2" d="M209.33,10.7h-.01s.02.04.02.04c.06,1.62.86,3.05,1.41,4.49.05.13.1.25.15.38.51,1.35,1.08,2.75,1.21,4.27.3,3.46-1.71,6.39-3.56,9.03-.21.29-.42.59-.63.89-.22.3-.43.6-.64.9-.15.21-.3.41-.45.61-.54.73-1.08,1.45-1.66,2.17-.02.03-.05.07-.08.1-.1.12-.19.24-.3.36.24-4.02-.43-8.12-2.11-12.02,0,0,0-.01-.01-.02-.05-.14-.12-.26-.19-.37-.54-1.32-1.21-2.65-1.26-4.14l-.02-.03s.01-.01.01-.01c0-.27,0-.51.03-.76.1-.88.42-1.68.83-2.43,1.14-2.07,3.17-4.28,6.49-3.25-.62-.76-1.41-1.61-2.37-2.22-.86-.58-2.06-1.26-3.28-1.29-1.35-.03-2.46.58-3.41,1.16-.18.11-.36.22-.52.32-.05.04-.11.07-.17.1-1.41,1.12-3.2,1.76-4.99,1.77-1.88.02-3.76-.64-5.22-1.83-.66-.54-1.24-1.19-1.95-1.67-.03-.02-.06-.04-.09-.06-1.54-.98-3.46-1.03-5.22-1.08.64-.48,1.28-.95,1.95-1.39.9-.59,1.83-1.14,2.78-1.64.78-.42,1.81-.92,2.95-1.34.6-.23,1.23-.42,1.86-.57,1.72-.42,3.52-.5,5.03.23.36.17.7.38,1.01.61.35.24.68.5,1,.75.36.27.71.51,1.09.72,1.09.54,2.31.64,3.51.48.24-.03.46-.07.7-.12,1.47-.31,2.86-.97,3.92-1.63.16-.1.34-.22.52-.32.95-.59,2.06-1.2,3.41-1.17,1.22.03,2.42.71,3.29,1.29.96.62,1.75,1.46,2.37,2.22-3.32-1.04-5.34,1.18-6.49,3.24-.41.75-.73,1.55-.82,2.43-.03.25-.04.49-.03.76"></path>
    <path class="cls-2" d="M186.38,35.24c1.68,3.89,2.36,8,2.12,12.02.1-.12.19-.24.29-.36.03-.03.05-.07.08-.1.58-.72,1.12-1.45,1.66-2.17.15-.2.3-.41.45-.61.22-.3.43-.61.64-.9.21-.3.42-.59.63-.89,1.85-2.64,3.86-5.56,3.57-9.03-.13-1.52-.7-2.92-1.21-4.26-.05-.14-.1-.26-.15-.39-.55-1.43-1.35-2.86-1.41-4.49l-.02-.02s.01-.02.01-.02c-.01-.27,0-.51.03-.76.09-.88.42-1.68.82-2.43,1.15-2.07,3.17-4.28,6.49-3.25-.62-.76-1.41-1.6-2.37-2.22-.87-.57-2.06-1.26-3.29-1.29-1.34-.03-2.46.58-3.41,1.16-.18.11-.36.22-.52.33-1.05.66-2.44,1.31-3.91,1.63-.23.05-.46.09-.7.12-1.19.16-2.42.06-3.51-.49-.38-.2-.74-.44-1.09-.71-.33-.25-.66-.51-1.01-.76-.31-.23-.65-.44-1.01-.61-1.51-.73-3.3-.65-5.02-.23-.64.15-1.26.35-1.86.57-1.14.42-2.17.93-2.95,1.35-.95.49-1.88,1.04-2.78,1.63-.21.14-.4.27-.59.4-.33.22-.65.45-.97.69-.03.02-.04.03-.06.05-.11.08-.22.16-.32.24,1.54.17,3.06.48,4.58.93,1.75.51,3.42,1.2,4.99,2.04,2.28,1.21,2.82,4.27,1.08,6.18-.01.01-.02.02-.03.03-1.59,1.74-3.72,2.98-5.86,3.93-1.63.73-3.16,1.06-4.93.88.74.89,1.77,1.59,2.57,2.44,1.38,1.46,2.28,3.28,2.75,5.23.24.96.38,1.94.47,2.93.09.96-.02,2.04.19,2.97.62-.74,1.01-1.79,1.5-2.63.51-.86,1.05-1.71,1.61-2.54,2.04-3.01,4.52-6.09,7.65-8.08,1.7-1.08,3.97-.37,4.78,1.48,0,0,0,.02.01.02"></path>
  </g>
</svg>
