<!DOCTYPE svg PUBLIC "-//W3C//DTD SVG 1.1//EN" "http://www.w3.org/Graphics/SVG/1.1/DTD/svg11.dtd">
<!-- Uploaded to: SVG Repo, www.svgrepo.com, Transformed by: SVG Repo Mixer Tools -->
<svg height="800px" width="800px" version="1.1" id="Layer_1" xmlns="http://www.w3.org/2000/svg" xmlns:xlink="http://www.w3.org/1999/xlink" viewBox="0 0 512 512" xml:space="preserve" fill="#000000">
<g id="SVGRepo_bgCarrier" stroke-width="0"/>
<g id="SVGRepo_tracerCarrier" stroke-linecap="round" stroke-linejoin="round"/>
<g id="SVGRepo_iconCarrier"> <path style="fill:#46ab03;" d="M141.74,351.38c-7.847,0-14.211-6.362-14.211-14.211V227.014c0-7.849,6.364-14.211,14.211-14.211 s14.211,6.362,14.211,14.211v110.154C155.951,345.017,149.588,351.38,141.74,351.38z"/> <path style="fill:#ffffff;" d="M109.216,309.734c-2.694,14.501-4.422,23.519-4.422,78.314c0,75.614,36.947,109.741,36.947,109.741 s36.947-34.126,36.947-109.741c0-53.831-1.728-63.813-4.422-78.314C173.679,309.791,109.803,309.791,109.216,309.734z"/> <g> <path style="fill:#46ab03;" d="M141.74,512c-3.462,0-6.919-1.258-9.642-3.772c-1.695-1.566-41.515-39.277-41.515-120.18 c0-55.828,1.839-65.72,4.621-80.692l0.04-0.219c1.29-6.939,7.448-11.816,14.424-11.608c1.724,0.02,15.051,0.036,32.072,0.036 s30.346-0.016,32.07-0.036c7-0.269,13.134,4.667,14.424,11.608c2.977,16.02,4.661,27.676,4.661,80.911 c0,80.904-39.821,118.614-41.516,120.18C148.66,510.742,145.2,512,141.74,512z M121.249,323.982 c-1.397,10.582-2.244,25.942-2.244,64.066c0,44.019,13.164,72.277,22.735,87.006c9.571-14.728,22.736-42.987,22.736-87.006 c0-37.983-0.848-53.414-2.25-64.066c-4.793,0.004-11.386,0.006-20.485,0.006C132.636,323.988,126.041,323.986,121.249,323.982z"/> <path style="fill:#46ab03;" d="M141.741,238.609H97.604c-34.128,0-61.892-27.764-61.892-61.892V44.964 c0-21.203,17.251-38.454,38.455-38.454h135.149c21.204,0,38.455,17.251,38.455,38.454v131.754 c0,29.232-20.755,54.727-49.354,60.619c-7.671,1.583-15.202-3.364-16.786-11.051c-1.585-7.688,3.364-15.203,11.051-16.788 c15.452-3.183,26.667-16.969,26.667-32.781V44.964c0-5.532-4.501-10.032-10.033-10.032H74.166c-5.532,0-10.033,4.501-10.033,10.032 v131.754c0,18.454,15.014,33.47,33.47,33.47h44.138c7.847,0,14.211,6.362,14.211,14.211S149.59,238.609,141.741,238.609z"/> <path style="fill:#46ab03;" d="M108.74,174.736c-7.847,0-14.211-6.362-14.211-14.211V76.077c0-7.849,6.364-14.211,14.211-14.211 s14.211,6.362,14.211,14.211v84.449C122.951,168.374,116.587,174.736,108.74,174.736z"/> <path style="fill:#46ab03;" d="M174.742,174.736c-7.847,0-14.211-6.362-14.211-14.211V76.077c0-7.849,6.364-14.211,14.211-14.211 c7.847,0,14.211,6.362,14.211,14.211v84.449C188.953,168.374,182.589,174.736,174.742,174.736z"/> <path style="fill:#46ab03;" d="M379.778,350.783c-7.847,0-14.211-6.362-14.211-14.211V240.63c0-7.849,6.364-14.211,14.211-14.211 s14.211,6.362,14.211,14.211v95.942C393.989,344.42,387.626,350.783,379.778,350.783z"/> </g> <path style="fill:#ffffff;" d="M347.254,309.139c-2.694,14.501-4.422,23.519-4.422,78.314c0,75.614,36.947,109.741,36.947,109.741 s36.947-34.126,36.947-109.741c0-53.831-1.728-63.813-4.422-78.314C411.715,309.194,347.84,309.194,347.254,309.139z"/> <g> <path style="fill:#46ab03;" d="M379.778,511.405c-3.46,0-6.919-1.258-9.642-3.772c-1.694-1.566-41.516-39.278-41.516-120.18 c0-55.83,1.839-65.72,4.621-80.693l0.04-0.217c1.289-6.941,7.457-11.843,14.424-11.608c1.724,0.02,15.051,0.036,32.072,0.036 c17.023,0,30.351-0.016,32.073-0.036c6.918-0.227,13.134,4.667,14.423,11.608c2.977,16.02,4.661,27.676,4.661,80.911 c0,80.902-39.821,118.614-41.516,120.18C386.697,510.147,383.238,511.405,379.778,511.405z M359.285,323.385 c-1.397,10.582-2.244,25.942-2.244,64.068c0,44.01,13.194,72.299,22.738,87.004c9.571-14.728,22.735-42.986,22.735-87.004 c0-37.983-0.848-53.415-2.25-64.068c-4.793,0.004-11.384,0.006-20.487,0.006C370.671,323.391,364.077,323.39,359.285,323.385z"/> <path style="fill:#46ab03;" d="M379.778,254.823c-26.65,0-51.4-13.854-69.688-39.009c-17.296-23.791-26.822-55.186-26.822-88.401 s9.526-64.611,26.822-88.401C328.378,13.854,353.128,0,379.778,0s51.4,13.854,69.688,39.009 c17.296,23.791,26.822,55.186,26.822,88.401c0,39.254-13.267,75.67-36.399,99.911c-5.419,5.676-14.413,5.89-20.092,0.47 c-5.679-5.419-5.889-14.414-0.47-20.092c17.869-18.726,28.539-48.741,28.539-80.288c0-27.257-7.596-52.716-21.389-71.688 c-12.798-17.606-29.383-27.302-46.699-27.302s-33.899,9.696-46.699,27.301c-13.793,18.972-21.389,44.431-21.389,71.688 c0,27.258,7.596,52.717,21.389,71.688c12.8,17.605,29.384,27.301,46.699,27.301c7.847,0,14.211,6.362,14.211,14.211 S387.626,254.823,379.778,254.823z"/> </g> </g>
</svg>